<?xml version="1.0" standalone="no"?>
<!DOCTYPE svg PUBLIC "-//W3C//DTD SVG 20010904//EN"
 "http://www.w3.org/TR/2001/REC-SVG-20010904/DTD/svg10.dtd">
<svg version="1.0" xmlns="http://www.w3.org/2000/svg"
 width="362.000000pt" height="363.000000pt" viewBox="0 0 362.000000 363.000000"
 preserveAspectRatio="xMidYMid meet">

<g transform="translate(0.000000,363.000000) scale(0.100000,-0.100000)"
fill="#030047" stroke="none">
<path d="M1130 3515 c-79 -13 -454 -99 -629 -143 -57 -15 -106 -32 -108 -38
-4 -13 109 -134 638 -680 613 -633 693 -714 706 -714 20 0 25 163 21 670 l-3
485 -26 65 c-69 179 -217 314 -390 355 -75 17 -108 17 -209 0z"/>
<path d="M1780 3235 c0 -3 10 -38 21 -78 21 -69 22 -97 26 -649 3 -318 9 -578
13 -578 7 0 556 526 609 584 l24 26 -64 67 c-35 38 -183 191 -329 341 -237
245 -300 305 -300 287z"/>
<path d="M3164 3139 c-74 -71 -394 -380 -1191 -1152 -62 -60 -113 -112 -113
-117 0 -5 8 -11 18 -14 10 -4 261 -7 558 -9 603 -2 598 -3 736 70 181 95 292
297 273 498 -12 124 -140 685 -177 775 l-15 35 -89 -86z"/>
<path d="M998 2423 c-152 -141 -608 -586 -608 -593 0 -4 42 1 93 12 134 28
329 36 800 30 306 -3 417 -2 417 7 0 20 -587 621 -607 621 -7 0 -49 -35 -95
-77z"/>
<path d="M3095 1818 c-65 -19 -108 -21 -650 -27 l-580 -6 112 -120 c61 -66
199 -207 306 -313 170 -169 197 -192 214 -184 27 15 670 639 677 657 6 18 9
18 -79 -7z"/>
<path d="M625 1804 c-11 -2 -45 -9 -75 -15 -117 -23 -248 -113 -318 -219 -95
-142 -108 -274 -52 -535 42 -197 129 -555 141 -577 19 -35 -57 -104 803 731
253 245 493 479 535 519 71 68 75 73 56 85 -15 8 -159 12 -545 14 -289 1 -534
0 -545 -3z"/>
<path d="M1816 1638 c-3 -62 -7 -304 -8 -538 -1 -361 1 -436 15 -497 52 -233
230 -404 451 -434 43 -6 102 -7 130 -4 116 15 772 171 781 185 6 9 -68 87
-802 847 -440 455 -538 553 -556 553 -3 0 -7 -51 -11 -112z"/>
<path d="M1695 1660 c-140 -126 -555 -534 -560 -551 -4 -10 -2 -26 2 -34 5 -8
155 -165 333 -347 205 -209 326 -326 328 -316 2 9 -5 45 -14 79 -15 56 -18
138 -23 644 l-6 579 -60 -54z"/>
</g>
</svg>
